<?xml version="1.0" encoding="iso-8859-1"?>
<!-- Uploaded to: SVG Repo, www.svgrepo.com, Generator: SVG Repo Mixer Tools -->
<svg fill="#000000" height="800px" width="800px" version="1.1" id="Layer_1" xmlns="http://www.w3.org/2000/svg" xmlns:xlink="http://www.w3.org/1999/xlink" 
	 viewBox="0 0 511.999 511.999" xml:space="preserve">
<g>
	<g>
		<path d="M469.778,410.455h-0.614c-1.423-76.303-23.13-147.837-61.498-202.19c-28.93-40.984-64.843-68.749-104.071-81.16
			l1.041-2.037l14.261-7.288c2.81-1.436,4.517-4.388,4.359-7.54l-0.803-16.005l8.69-13.461c1.708-2.648,1.708-6.049,0-8.697
			l-8.689-13.459l0.804-16.001c0.158-3.152-1.548-6.104-4.359-7.541l-14.259-7.288l-7.288-14.261c-1.437-2.81-4.39-4.522-7.54-4.359
			L273.81,9.971l-13.461-8.69c-2.647-1.708-6.048-1.708-8.696,0L238.192,9.97l-16.001-0.804c-3.161-0.161-6.104,1.548-7.541,4.359
			l-7.288,14.259l-14.261,7.288c-2.81,1.436-4.517,4.388-4.359,7.54l0.803,16.005l-8.69,13.461c-1.708,2.648-1.708,6.049,0,8.697
			l8.689,13.459l-0.804,16.001c-0.158,3.152,1.548,6.104,4.359,7.541l14.259,7.288l1.043,2.042
			c-39.227,12.411-75.14,40.177-104.07,81.159c-38.367,54.354-60.074,125.887-61.497,202.191h-0.614
			c-9.136,0-16.568,7.432-16.568,16.568v68.409c0,9.136,7.432,16.568,16.568,16.568h427.557c9.136,0,16.568-7.432,16.568-16.568
			v-68.409C486.346,417.887,478.914,410.455,469.778,410.455z M205.014,105.858l0.673-13.401c0.084-1.677-0.36-3.339-1.271-4.75
			l-7.283-11.282l7.283-11.283c0.911-1.411,1.355-3.073,1.271-4.749l-0.672-13.405l11.952-6.108c1.502-0.767,2.722-1.988,3.49-3.49
			l6.108-11.951l13.401,0.673c1.677,0.081,3.339-0.361,4.75-1.271l11.282-7.283l11.283,7.283c1.411,0.911,3.074,1.352,4.749,1.271
			l13.405-0.672l6.108,11.952c0.767,1.502,1.988,2.722,3.49,3.49l11.951,6.108l-0.673,13.401c-0.084,1.677,0.36,3.339,1.271,4.75
			l7.283,11.282l-7.283,11.283c-0.911,1.411-1.355,3.073-1.271,4.749l0.672,13.405l-11.952,6.108
			c-1.502,0.767-2.722,1.988-3.49,3.49l-3.833,7.499c-10.4-2.148-20.991-3.243-31.709-3.243c-10.718,0-21.309,1.096-31.711,3.244
			l-3.833-7.502c-0.767-1.502-1.988-2.722-3.49-3.49L205.014,105.858z M256,135.749c69.145,0,130.081,51.288,165.3,128.711
			c-4.289-1.044-7.151-3.318-10.721-6.171c-5.745-4.591-12.895-10.305-26.406-10.305c-13.504,0-20.651,5.715-26.393,10.307
			c-4.933,3.945-8.498,6.795-16.38,6.795c-7.871,0-11.432-2.85-16.359-6.793c-5.739-4.593-12.88-10.31-26.377-10.31
			c-13.502,0-20.647,5.715-26.388,10.307c-4.931,3.944-8.495,6.795-16.372,6.795c-7.875,0-11.436-2.85-16.366-6.794
			c-5.74-4.593-12.883-10.308-26.382-10.308c-13.499,0-20.642,5.715-26.382,10.308c-4.93,3.944-8.491,6.794-16.366,6.794
			c-7.875,0-11.436-2.85-16.366-6.794c-5.74-4.593-12.883-10.308-26.382-10.308c-13.496,0-20.636,5.716-26.374,10.31
			c-3.527,2.824-6.361,5.079-10.57,6.136C125.935,187.023,186.865,135.749,256,135.749z M83.697,281.076
			c0.413,0.011,0.815,0.042,1.232,0.042c13.496,0,20.637-5.716,26.375-10.309c4.927-3.943,8.486-6.793,16.354-6.793
			c7.875,0,11.436,2.85,16.366,6.794c5.74,4.593,12.882,10.308,26.382,10.308s20.644-5.715,26.382-10.308
			c4.93-3.944,8.491-6.794,16.366-6.794c7.875,0,11.436,2.85,16.366,6.794c5.74,4.593,12.883,10.308,26.382,10.308
			c13.502,0,20.647-5.715,26.388-10.307c4.931-3.944,8.495-6.795,16.372-6.795c7.871,0,11.431,2.85,16.358,6.793
			c5.739,4.593,12.88,10.309,26.378,10.309c13.504,0,20.651-5.715,26.393-10.307c4.933-3.945,8.498-6.795,16.38-6.795
			c7.891,0,11.458,2.851,16.397,6.797c5.745,4.591,12.895,10.305,26.406,10.305c0.449,0,0.889-0.017,1.332-0.03
			c7.409,19.02,13.336,39.379,17.541,60.766c-0.85,0.651-1.671,1.303-2.476,1.945c-4.938,3.946-8.506,6.797-16.397,6.797
			s-11.458-2.851-16.397-6.797c-5.745-4.591-12.895-10.305-26.406-10.305c-13.504,0-20.651,5.715-26.393,10.307
			c-4.933,3.945-8.498,6.795-16.38,6.795c-7.871,0-11.432-2.85-16.359-6.793c-5.739-4.593-12.88-10.309-26.377-10.309
			c-13.502,0-20.647,5.715-26.388,10.307c-4.931,3.944-8.495,6.795-16.372,6.795c-7.875,0-11.436-2.85-16.366-6.794
			c-5.74-4.593-12.883-10.308-26.382-10.308s-20.642,5.715-26.382,10.308c-4.93,3.944-8.491,6.794-16.366,6.794
			c-7.875,0-11.436-2.85-16.366-6.794c-5.74-4.593-12.883-10.308-26.382-10.308c-13.496,0-20.636,5.716-26.374,10.309
			c-4.928,3.944-8.487,6.794-16.356,6.794c-7.862,0-11.42-2.849-16.343-6.792c-0.793-0.635-1.607-1.278-2.44-1.92
			C70.352,320.483,76.283,300.11,83.697,281.076z M63.075,359.774c5.078,3.582,11.646,6.856,21.854,6.856
			c13.496,0,20.637-5.716,26.375-10.309c4.927-3.943,8.486-6.793,16.354-6.793c7.875,0,11.436,2.85,16.366,6.794
			c5.74,4.593,12.882,10.308,26.382,10.308c13.5,0,20.643-5.715,26.382-10.308c4.93-3.944,8.491-6.794,16.366-6.794
			c7.875,0,11.436,2.85,16.366,6.794c5.74,4.593,12.883,10.308,26.382,10.308c13.502,0,20.647-5.715,26.388-10.307
			c4.931-3.944,8.495-6.795,16.372-6.795c7.87,0,11.431,2.85,16.358,6.793c5.739,4.593,12.88,10.309,26.378,10.309
			c13.504,0,20.651-5.715,26.393-10.307c4.933-3.945,8.498-6.795,16.38-6.795c7.891,0,11.459,2.851,16.397,6.797
			c5.745,4.591,12.895,10.305,26.406,10.305c10.26,0,16.849-3.297,21.943-6.892c2.432,16.43,3.869,33.379,4.208,50.717H58.872
			C59.211,393.129,60.648,376.192,63.075,359.774z M59.858,495.966H42.221c-0.295,0-0.534-0.239-0.534-0.534v-68.409
			c0-0.295,0.239-0.534,0.534-0.534h17.637V495.966z M94.062,495.966H75.891v-69.478h18.171V495.966z M128.267,495.966h-18.171
			v-69.478h18.171V495.966z M162.472,495.966H144.3v-69.478h18.171V495.966z M196.676,495.966h-18.171v-69.478h18.171V495.966z
			 M230.881,495.966H212.71v-69.478h18.171V495.966z M265.085,495.966h-18.171v-69.478h18.171V495.966z M299.29,495.966h-18.171
			v-69.478h18.171V495.966z M333.495,495.966h-18.171v-69.478h18.171V495.966z M367.699,495.966h-18.171v-69.478h18.171V495.966z
			 M401.904,495.966h-18.171v-69.478h18.171V495.966z M436.108,495.966h-18.171v-69.478h18.171V495.966z M470.313,495.432
			c0,0.295-0.239,0.534-0.534,0.534h-17.637v-69.478h17.637c0.295,0,0.534,0.239,0.534,0.534V495.432z"/>
	</g>
</g>
<g>
	<g>
		<path d="M256.085,230.88H256c-4.427,0-7.974,3.589-7.974,8.017s3.632,8.017,8.059,8.017c4.427,0,8.017-3.589,8.017-8.017
			S260.513,230.88,256.085,230.88z"/>
	</g>
</g>
<g>
	<g>
		<path d="M213.33,367.699h-0.086c-4.427,0-7.974,3.589-7.974,8.017c0,4.427,3.632,8.017,8.059,8.017s8.017-3.589,8.017-8.017
			C221.346,371.288,217.757,367.699,213.33,367.699z"/>
	</g>
</g>
<g>
	<g>
		<path d="M298.841,367.699h-0.086c-4.427,0-7.974,3.589-7.974,8.017c0,4.427,3.632,8.017,8.059,8.017s8.017-3.589,8.017-8.017
			C306.858,371.288,303.268,367.699,298.841,367.699z"/>
	</g>
</g>
<g>
	<g>
		<path d="M384.267,367.699h-0.085c-4.427,0-7.974,3.589-7.974,8.017c0,4.427,3.632,8.017,8.059,8.017
			c4.427,0,8.017-3.589,8.017-8.017C392.284,371.288,388.694,367.699,384.267,367.699z"/>
	</g>
</g>
<g>
	<g>
		<path d="M127.818,367.699h-0.086c-4.427,0-7.974,3.589-7.974,8.017c0,4.427,3.632,8.017,8.059,8.017s8.017-3.589,8.017-8.017
			C135.835,371.288,132.245,367.699,127.818,367.699z"/>
	</g>
</g>
<g>
	<g>
		<path d="M341.597,230.88h-0.086c-4.427,0-7.974,3.589-7.974,8.017s3.632,8.017,8.059,8.017s8.017-3.589,8.017-8.017
			S346.024,230.88,341.597,230.88z"/>
	</g>
</g>
<g>
	<g>
		<path d="M170.488,230.88h-0.086c-4.427,0-7.974,3.589-7.974,8.017s3.632,8.017,8.059,8.017s8.017-3.589,8.017-8.017
			S174.916,230.88,170.488,230.88z"/>
	</g>
</g>
</svg>