<?xml version="1.0" standalone="no"?>
<!DOCTYPE svg PUBLIC "-//W3C//DTD SVG 20010904//EN"
 "http://www.w3.org/TR/2001/REC-SVG-20010904/DTD/svg10.dtd">
<svg version="1.0" xmlns="http://www.w3.org/2000/svg"
 width="230.000000pt" height="230.000000pt" viewBox="0 0 230.000000 230.000000"
 preserveAspectRatio="xMidYMid meet">

<g transform="translate(0.000000,230.000000) scale(0.100000,-0.100000)"
fill="#000000" stroke="none">
<path d="M1315 1581 c-140 -12 -210 -22 -225 -31 -8 -5 -20 -51 -30 -112 l-16
-103 -317 -3 c-278 -2 -317 0 -317 13 0 8 -9 15 -21 15 -11 0 -18 -4 -14 -9 3
-5 1 -12 -5 -16 -6 -4 -2 -17 12 -35 l23 -29 327 0 327 -1 6 33 c8 46 25 170
25 184 0 33 145 62 313 63 l57 0 0 -134 c0 -183 19 -190 22 -9 l3 138 120 -2
c129 -3 217 -17 238 -38 8 -7 19 -56 25 -108 7 -52 15 -102 18 -111 5 -13 24
-16 105 -16 102 0 109 3 89 41 -8 14 -21 19 -55 19 l-45 0 0 85 c0 102 -11
117 -95 135 -151 31 -404 45 -570 31z"/>
<path d="M1171 1519 c-25 -5 -49 -13 -55 -19 -12 -11 -45 -217 -37 -225 2 -3
87 -5 188 -5 l183 0 0 130 0 130 -117 -1 c-65 -1 -138 -5 -162 -10z m257 -31
c12 -12 17 -114 6 -142 -9 -24 -299 -24 -308 0 -11 28 -6 130 6 142 8 8 56 12
148 12 92 0 140 -4 148 -12z"/>
<path d="M1500 1401 l0 -131 188 2 c147 2 186 6 184 16 -1 7 -7 48 -12 90 -6
42 -12 86 -15 98 -8 36 -51 47 -202 52 l-143 5 0 -132z m320 80 c12 -23 13
-120 2 -139 -7 -9 -45 -12 -158 -10 l-149 3 -3 68 c-2 42 2 74 9 83 9 11 43
14 150 14 126 0 139 -2 149 -19z"/>
<path d="M330 1286 c0 -32 -2 -33 -47 -40 -31 -4 -56 -15 -75 -33 -31 -30 -35
-48 -13 -69 11 -11 12 -21 4 -42 -13 -35 -59 -102 -70 -102 -5 0 -9 -9 -9 -20
0 -27 29 -38 45 -17 19 26 25 20 26 -25 l1 -43 13 53 c18 77 60 132 124 165
59 29 103 33 166 16 30 -8 60 -32 120 -95 45 -47 98 -91 120 -101 36 -16 84
-18 502 -21 l461 -3 7 43 c20 119 100 188 217 188 99 0 175 -58 229 -175 22
-47 28 -54 29 -34 0 40 -27 110 -60 151 -33 40 -39 68 -15 68 9 0 15 9 15 25
0 16 -6 25 -15 25 -10 0 -15 10 -15 30 l0 30 -99 0 c-90 0 -99 -2 -94 -18 3
-14 -5 -20 -40 -29 -86 -23 -163 -115 -182 -216 l-7 -37 -94 0 -94 0 0 150 c0
93 -4 150 -10 150 -6 0 -10 -57 -10 -150 l0 -150 -225 0 c-162 0 -225 3 -225
11 0 17 40 251 46 272 5 16 -15 17 -320 17 l-325 0 -28 -27 -28 -28 -3 58 c-3
60 -22 81 -22 23z m230 -92 c0 -8 -4 -12 -10 -9 -5 3 -10 10 -10 16 0 5 5 9
10 9 6 0 10 -7 10 -16z m17 -16 c-3 -7 -5 -2 -5 12 0 14 2 19 5 13 2 -7 2 -19
0 -25z m20 -5 c-3 -10 -5 -4 -5 12 0 17 2 24 5 18 2 -7 2 -21 0 -30z m30 -15
c-2 -13 -4 -5 -4 17 -1 22 1 32 4 23 2 -10 2 -28 0 -40z m20 -10 c-2 -13 -4
-3 -4 22 0 25 2 35 4 23 2 -13 2 -33 0 -45z m30 -15 c-2 -16 -4 -3 -4 27 0 30
2 43 4 28 2 -16 2 -40 0 -55z m60 -20 c-2 -21 -4 -6 -4 32 0 39 2 55 4 38 2
-18 2 -50 0 -70z m20 5 c-2 -18 -4 -4 -4 32 0 36 2 50 4 33 2 -18 2 -48 0 -65z
m30 0 c-2 -18 -4 -4 -4 32 0 36 2 50 4 33 2 -18 2 -48 0 -65z m20 -5 c-2 -21
-4 -6 -4 32 0 39 2 55 4 38 2 -18 2 -50 0 -70z m30 5 c-2 -18 -4 -4 -4 32 0
36 2 50 4 33 2 -18 2 -48 0 -65z m20 -5 c-2 -21 -4 -6 -4 32 0 39 2 55 4 38 2
-18 2 -50 0 -70z m20 5 c-2 -18 -4 -4 -4 32 0 36 2 50 4 33 2 -18 2 -48 0 -65z
m30 -5 c-2 -21 -4 -6 -4 32 0 39 2 55 4 38 2 -18 2 -50 0 -70z m20 0 c-2 -21
-4 -6 -4 32 0 39 2 55 4 38 2 -18 2 -50 0 -70z m30 5 c-2 -18 -4 -4 -4 32 0
36 2 50 4 33 2 -18 2 -48 0 -65z m20 -5 c-2 -21 -4 -6 -4 32 0 39 2 55 4 38 2
-18 2 -50 0 -70z m20 5 c-2 -18 -4 -4 -4 32 0 36 2 50 4 33 2 -18 2 -48 0 -65z"/>
<path d="M1070 1258 c0 -2 -11 -66 -25 -142 -14 -77 -25 -141 -25 -143 0 -2
97 -3 215 -3 l215 0 0 145 0 145 -190 0 c-104 0 -190 -1 -190 -2z m51 -30
c-13 -4 -27 -5 -33 -2 -16 10 11 22 35 16 20 -5 20 -5 -2 -14z"/>
<path d="M1500 1115 l0 -145 80 0 c71 0 80 2 80 18 0 80 78 186 164 223 97 42
77 49 -134 49 l-190 0 0 -145z m51 113 c-13 -4 -27 -5 -33 -2 -16 10 11 22 35
16 20 -5 20 -5 -2 -14z"/>
<path d="M325 1097 c-161 -91 -126 -334 55 -377 191 -46 331 195 197 338 -60
64 -176 82 -252 39z m150 -47 c4 -6 10 -8 15 -5 4 3 13 -2 21 -11 10 -12 9
-18 -4 -31 -13 -13 -19 -14 -31 -3 -9 7 -16 9 -16 4 0 -5 -7 0 -15 10 -8 11
-15 14 -15 8 0 -7 -6 -12 -12 -12 -7 0 -26 -7 -42 -15 -15 -8 -33 -12 -40 -8
-6 4 -6 0 2 -9 7 -9 9 -19 4 -22 -26 -16 13 -114 49 -123 27 -7 26 -53 -1 -53
-11 0 -20 5 -20 11 0 5 -4 8 -8 5 -14 -8 -65 51 -57 65 5 8 4 10 -3 5 -7 -4
-12 -4 -12 1 -1 4 -3 25 -6 46 -5 31 -3 37 13 37 15 0 16 2 3 10 -13 8 -12 13
7 37 11 15 28 27 37 27 9 -1 13 2 11 7 -9 14 28 28 72 29 23 0 45 -5 48 -10z
m70 -61 c0 -8 6 -18 13 -22 6 -4 12 -24 12 -42 0 -27 -4 -35 -17 -35 -14 0
-15 -2 -4 -9 20 -13 -17 -74 -41 -68 -11 3 -15 0 -11 -9 3 -8 -5 -15 -24 -19
-15 -4 -34 -8 -40 -11 -9 -2 -13 7 -13 26 0 30 9 35 58 33 7 -1 11 1 8 4 -3 3
4 17 14 31 11 13 20 31 20 38 0 8 5 14 10 14 6 0 1 9 -10 20 -23 23 -25 41 -8
58 15 15 33 10 33 -9z"/>
<path d="M1835 1103 c-98 -51 -144 -176 -99 -266 68 -135 224 -165 329 -63 98
94 78 256 -40 323 -49 28 -144 31 -190 6z m95 -68 c0 -24 -10 -29 -57 -28 -7
0 -11 -4 -10 -11 1 -6 -6 -10 -17 -9 -12 1 -15 -2 -8 -9 7 -7 7 -16 -1 -29 -8
-13 -8 -27 1 -55 10 -32 9 -41 -5 -56 -15 -17 -18 -17 -25 -3 -5 8 -6 20 -2
27 4 6 3 8 -3 5 -13 -8 -23 15 -23 54 0 21 5 29 18 29 13 0 14 2 3 9 -35 22
47 96 112 100 12 1 17 -6 17 -24z m52 13 c36 -19 71 -55 64 -66 -3 -6 -1 -12
5 -14 6 -2 13 -20 16 -41 4 -31 2 -37 -14 -37 -14 0 -15 -2 -4 -9 15 -10 4
-38 -23 -61 -13 -10 -19 -10 -33 1 -17 13 -17 12 -4 -4 13 -16 13 -20 0 -28
-24 -15 -111 -14 -117 2 -2 5 -7 7 -12 4 -4 -3 -13 2 -21 11 -10 12 -9 18 3
31 17 16 39 10 34 -10 -1 -7 -1 -9 1 -4 7 12 33 8 33 -5 0 -10 3 -9 9 1 5 7
14 11 19 7 16 -9 83 61 76 79 -4 10 0 15 12 16 14 1 15 3 4 5 -21 6 -40 50
-27 63 7 7 3 8 -12 4 -12 -3 -21 -1 -21 6 0 6 -6 10 -12 9 -8 -2 -14 9 -16 25
-4 30 4 33 40 15z"/>
</g>
</svg>
