<?xml version="1.0" standalone="no"?>
<!DOCTYPE svg PUBLIC "-//W3C//DTD SVG 20010904//EN"
 "http://www.w3.org/TR/2001/REC-SVG-20010904/DTD/svg10.dtd">
<svg version="1.0" xmlns="http://www.w3.org/2000/svg"
 width="512.000000pt" height="512.000000pt" viewBox="0 0 512.000000 512.000000"
 preserveAspectRatio="xMidYMid meet">

<g transform="translate(0.000000,512.000000) scale(0.100000,-0.100000)"
fill="#000000" stroke="none">
<path d="M3105 3694 c-395 -30 -659 -82 -890 -176 -142 -58 -692 -329 -1009
-497 -323 -172 -367 -192 -572 -266 -245 -88 -320 -131 -429 -244 -170 -176
-240 -441 -185 -698 l12 -53 172 0 173 0 0 98 c1 119 25 203 84 291 153 230
436 311 684 197 97 -45 207 -152 253 -246 40 -81 65 -198 59 -267 l-6 -53 82
0 c61 0 2440 39 2455 40 1 0 2 19 2 43 1 201 131 398 322 487 209 97 472 40
628 -137 48 -55 105 -166 115 -222 4 -23 11 -41 15 -41 13 0 39 93 46 160 9
82 -16 162 -102 328 l-75 146 6 135 c7 129 6 139 -18 201 -77 204 -250 458
-377 553 -230 172 -436 214 -1080 221 -173 2 -337 2 -365 0z m225 -186 c-1
-38 -67 -578 -71 -583 -8 -7 -953 -81 -1303 -101 l-118 -7 7 34 c11 50 7 108
-11 155 -15 40 -15 46 3 101 l19 58 139 72 c322 166 557 242 840 272 153 17
169 18 338 19 157 2 157 2 157 -20z m455 12 c300 -16 472 -51 540 -111 30 -27
35 -37 35 -76 0 -83 -84 -214 -172 -270 -22 -13 -72 -33 -113 -43 -69 -18
-433 -66 -439 -59 -1 2 -15 112 -30 244 -15 132 -30 259 -33 283 -4 32 -2 42
8 42 8 0 99 -5 204 -10z"/>
<path d="M790 2276 c-152 -56 -246 -152 -290 -295 -77 -247 83 -504 345 -552
214 -40 434 102 490 316 59 228 -64 451 -290 529 -59 19 -204 21 -255 2z m90
-210 c0 -57 -3 -65 -21 -71 -16 -6 -31 3 -65 36 -42 41 -43 43 -24 56 18 13
86 41 103 42 4 1 7 -28 7 -63z m160 33 l44 -20 -46 -45 c-35 -36 -50 -45 -67
-39 -19 6 -21 14 -21 71 0 74 -3 73 90 33z m-265 -188 c-5 -18 -14 -21 -66
-21 -54 0 -59 2 -59 21 0 12 10 42 22 66 l22 44 44 -44 c34 -35 43 -49 37 -66z
m402 15 l6 -36 -61 0 c-53 0 -62 3 -67 21 -6 16 3 31 36 65 l43 44 19 -29 c10
-16 21 -46 24 -65z m-399 -130 c4 -18 -62 -96 -81 -96 -10 0 -46 79 -47 103 0
16 8 18 62 15 52 -2 63 -6 66 -22z m399 -9 c-3 -19 -14 -48 -24 -65 l-19 -31
-43 43 c-33 34 -42 49 -36 65 5 18 14 21 67 21 l61 0 -6 -33z m-297 -137 c0
-51 -3 -60 -17 -60 -23 1 -103 37 -103 47 0 4 19 26 42 50 33 34 45 40 60 32
14 -8 18 -22 18 -69z m152 33 c21 -20 38 -41 38 -46 0 -10 -79 -46 -102 -47
-15 0 -18 9 -18 58 0 86 21 95 82 35z"/>
<path d="M4394 2271 c-137 -50 -233 -151 -279 -290 -14 -42 -16 -75 -13 -148
5 -82 10 -103 42 -167 42 -86 122 -166 201 -202 275 -126 590 52 621 351 19
182 -83 358 -253 438 -60 28 -80 32 -168 34 -78 2 -111 -2 -151 -16z m104
-211 c-5 -79 -25 -87 -83 -30 -25 24 -41 48 -37 52 16 16 107 46 115 39 5 -5
7 -32 5 -61z m181 28 c20 -14 20 -15 -23 -57 -34 -33 -49 -42 -65 -36 -18 6
-21 14 -21 70 l0 64 44 -13 c24 -7 53 -20 65 -28z m-285 -176 c-9 -13 -25 -17
-70 -17 -67 0 -68 3 -33 85 l20 44 47 -47 c39 -39 45 -50 36 -65z m406 -5 c0
-16 -8 -18 -62 -15 -82 4 -87 23 -26 85 l43 44 22 -48 c13 -26 23 -56 23 -66z
m-405 -108 c6 -17 -3 -31 -38 -66 l-44 -45 -21 44 c-42 89 -42 88 32 88 57 0
65 -2 71 -21z m405 4 c-1 -23 -37 -103 -47 -103 -4 0 -26 19 -50 42 -34 33
-40 45 -32 60 14 26 129 27 129 1z m-110 -164 c0 -10 -83 -49 -103 -49 -25 0
-25 115 1 129 14 8 25 2 60 -32 23 -22 42 -44 42 -48z m-200 16 c0 -39 -4 -65
-11 -65 -6 0 -33 10 -60 21 l-50 22 42 43 c24 24 51 44 61 44 15 0 18 -9 18
-65z"/>
</g>
</svg>
