<?xml version="1.0" standalone="no"?>
<!DOCTYPE svg PUBLIC "-//W3C//DTD SVG 20010904//EN"
 "http://www.w3.org/TR/2001/REC-SVG-20010904/DTD/svg10.dtd">
<svg version="1.0" xmlns="http://www.w3.org/2000/svg"
 width="512.000000pt" height="512.000000pt" viewBox="0 0 512.000000 512.000000"
 preserveAspectRatio="xMidYMid meet">

<g transform="translate(0.000000,512.000000) scale(0.100000,-0.100000)"
fill="#000000" stroke="none">
<path d="M2965 3250 c-193 -7 -177 -1 -390 -128 -154 -91 -361 -198 -427 -221
-31 -11 -103 -28 -160 -38 -91 -16 -165 -18 -618 -18 l-515 -1 -96 -26 c-127
-34 -230 -78 -339 -144 -50 -30 -132 -68 -183 -85 -113 -38 -222 -92 -231
-114 -12 -33 -6 -55 23 -76 15 -11 33 -38 40 -58 19 -64 62 -114 127 -145 99
-49 214 -87 282 -93 60 -6 64 -5 58 13 -58 186 19 395 185 500 95 60 246 81
350 50 213 -65 346 -270 312 -483 -6 -37 -14 -75 -18 -85 -5 -14 3 -17 57 -22
35 -3 403 -8 818 -11 415 -3 884 -8 1043 -11 l287 -7 -35 59 c-47 77 -65 142
-65 229 0 194 120 360 303 417 265 82 546 -107 564 -382 4 -46 1 -98 -6 -125
-7 -26 -10 -50 -7 -52 2 -3 98 -1 213 3 l208 7 59 63 59 64 58 0 59 0 70 105
c38 57 70 111 70 119 0 19 -31 36 -64 36 -31 0 -31 -2 -9 128 20 118 18 122
-54 122 -70 0 -339 49 -525 96 -328 82 -556 165 -705 256 l-81 50 -129 8
c-139 10 -322 10 -588 0z m415 -100 c17 -17 20 -33 20 -104 0 -88 -4 -97 -50
-111 -14 -4 -39 -18 -57 -31 -58 -43 -146 -56 -393 -58 -224 -1 -441 10 -439
22 0 7 286 240 331 272 22 15 151 24 441 28 115 2 129 0 147 -18z"/>
<path d="M3830 2711 c-199 -40 -339 -245 -301 -442 17 -83 42 -131 104 -196
214 -226 593 -108 648 203 45 255 -195 485 -451 435z m30 -173 c0 -18 3 -43 6
-55 4 -16 0 -23 -16 -28 -17 -5 -30 1 -56 26 -19 18 -34 37 -34 41 0 8 76 47
93 48 4 0 7 -15 7 -32z m144 14 l40 -18 -37 -41 c-27 -29 -43 -40 -57 -36 -17
5 -20 14 -20 59 0 62 8 66 74 36z m116 -118 c12 -25 21 -46 19 -48 -2 -2 -27
-6 -56 -9 -46 -5 -53 -4 -58 15 -5 14 2 29 26 54 18 19 36 34 40 34 4 0 17
-20 29 -46z m-368 -1 c30 -29 35 -40 27 -55 -13 -24 -109 -27 -109 -3 0 19 30
95 38 95 3 0 23 -16 44 -37z m384 -150 c-10 -41 -27 -83 -35 -83 -4 0 -24 17
-44 38 -52 53 -43 72 30 72 55 0 55 0 49 -27z m-356 13 c0 -2 3 -11 6 -19 5
-15 -50 -87 -67 -87 -9 0 -32 41 -43 77 -6 18 -2 22 21 26 42 6 83 8 83 3z
m100 -142 c0 -59 1 -58 -50 -44 -67 19 -69 25 -27 68 54 56 77 48 77 -24z
m140 31 c33 -34 33 -35 14 -50 -10 -8 -32 -19 -49 -23 -29 -8 -30 -7 -39 35
-16 80 17 97 74 38z"/>
<path d="M874 2620 c-110 -22 -215 -107 -267 -218 -29 -60 -32 -77 -32 -157 0
-80 3 -97 32 -157 163 -345 661 -271 723 107 30 185 -102 377 -289 421 -62 15
-105 16 -167 4z m36 -195 c0 -71 -18 -81 -66 -34 -19 18 -34 37 -34 41 0 8 76
47 93 48 4 0 7 -25 7 -55z m142 37 l38 -17 -35 -42 c-26 -30 -40 -40 -55 -36
-17 5 -20 14 -20 59 0 62 8 66 72 36z m106 -94 c6 -13 16 -35 21 -49 9 -26 8
-27 -41 -32 -57 -7 -68 -4 -68 21 0 15 57 82 70 82 4 0 12 -10 18 -22z m-346
-36 c22 -20 25 -29 17 -43 -7 -15 -21 -19 -59 -19 -57 0 -63 12 -33 74 18 39
19 39 75 -12z m378 -124 c0 -7 -10 -33 -21 -57 l-20 -45 -40 40 c-54 54 -46
74 27 74 37 0 54 -4 54 -12z m-356 -15 c7 -16 -38 -83 -61 -90 -12 -4 -40 35
-48 70 -6 23 -4 26 27 30 66 8 76 7 82 -10z m96 -133 c0 -38 -4 -50 -15 -50
-19 0 -95 30 -95 38 0 3 16 23 37 44 29 30 40 35 55 27 14 -7 18 -21 18 -59z
m136 35 c37 -33 38 -35 19 -47 -30 -19 -83 -37 -89 -31 -8 9 -8 98 1 106 13
14 30 6 69 -28z"/>
</g>
</svg>
