<?xml version="1.0" standalone="no"?>
<!DOCTYPE svg PUBLIC "-//W3C//DTD SVG 20010904//EN"
 "http://www.w3.org/TR/2001/REC-SVG-20010904/DTD/svg10.dtd">
<svg version="1.0" xmlns="http://www.w3.org/2000/svg"
 width="512.000000pt" height="512.000000pt" viewBox="0 0 512.000000 512.000000"
 preserveAspectRatio="xMidYMid meet">

<g transform="translate(0.000000,512.000000) scale(0.100000,-0.100000)"
fill="#000000" stroke="none">
<path d="M3150 3758 c-394 -5 -690 -12 -711 -18 -64 -18 -78 -101 -24 -136 23
-15 89 -15 781 -6 l756 10 24 23 c25 24 32 66 14 99 -13 24 -63 40 -119 38
-25 -1 -350 -5 -721 -10z"/>
<path d="M3410 3489 c-1056 -17 -1272 -22 -1306 -35 -41 -14 -71 -50 -398
-475 -1 -1 -262 -18 -581 -38 -671 -44 -631 -35 -714 -149 -40 -54 -59 -71
-98 -86 -69 -28 -97 -49 -132 -104 -36 -56 -39 -87 -11 -104 15 -10 20 -24 20
-60 l0 -48 -55 0 c-113 0 -135 -30 -135 -185 0 -125 14 -165 65 -189 18 -9 53
-16 77 -16 l43 0 84 236 c69 191 90 239 113 259 l30 25 313 0 c218 0 322 -4
340 -12 14 -6 111 -123 226 -275 l200 -263 1008 0 1008 0 148 251 c108 182
156 254 176 265 40 20 592 20 629 0 16 -9 77 -103 170 -263 l145 -248 81 0
c69 1 86 4 127 28 66 39 93 86 118 200 23 107 20 137 -16 173 -21 20 -34 24
-90 24 -49 0 -65 3 -65 14 0 65 -93 1007 -101 1028 -15 37 -51 58 -107 63 -26
2 -616 -6 -1312 -16z m1226 -151 c8 -12 33 -323 34 -416 l0 -52 -357 2 -358 3
0 230 0 230 200 5 c400 11 473 11 481 -2z m-878 -162 l3 -160 -73 -73 -72 -73
-318 0 -318 0 0 225 c0 124 1 226 3 227 2 2 690 15 742 14 l30 -1 3 -159z
m-1018 13 l0 -132 -52 -93 -52 -94 -295 2 -296 3 -3 92 -3 92 -55 3 -56 3 91
120 91 120 118 5 c64 4 206 7 315 8 l197 2 0 -131z"/>
<path d="M630 2425 c-228 -64 -394 -283 -393 -520 1 -138 41 -250 125 -352
107 -129 248 -195 418 -196 249 0 463 168 526 415 22 84 15 232 -14 313 -54
147 -179 273 -329 327 -76 28 -253 35 -333 13z m110 -334 c0 -78 -18 -86 -72
-34 -21 20 -38 41 -38 46 0 9 78 46 98 47 8 0 12 -18 12 -59z m148 39 c23 -10
42 -23 42 -27 0 -5 -18 -26 -39 -47 -34 -33 -42 -36 -60 -27 -17 10 -21 21
-21 66 0 64 8 67 78 35z m-239 -182 c-8 -14 -22 -18 -64 -18 -64 0 -67 8 -34
79 l20 45 44 -44 c36 -35 42 -47 34 -62z m361 60 c32 -70 28 -78 -35 -78 -78
0 -87 21 -32 78 22 23 43 42 45 42 1 0 12 -19 22 -42z m-360 -171 c0 -26 -63
-93 -78 -83 -13 8 -42 70 -42 90 0 13 12 16 60 16 56 0 60 -2 60 -23z m380 11
c-1 -20 -38 -98 -47 -98 -5 0 -26 17 -46 38 -52 54 -44 72 34 72 41 0 59 -4
59 -12z m-100 -156 c0 -6 -85 -42 -102 -42 -15 0 -18 9 -18 55 0 78 21 87 78
32 23 -22 42 -43 42 -45z m-190 18 c0 -68 -3 -70 -69 -39 l-44 20 38 39 c22
22 47 40 57 40 15 0 18 -9 18 -60z"/>
<path d="M3989 2421 c-261 -83 -422 -344 -375 -608 48 -271 264 -455 536 -455
154 -1 287 58 396 174 134 145 180 351 118 536 -33 99 -70 157 -149 230 -68
64 -140 105 -226 127 -76 21 -230 18 -300 -4z m121 -330 c0 -78 -18 -86 -72
-34 -21 20 -38 41 -38 46 0 9 78 46 98 47 8 0 12 -18 12 -59z m148 38 l44 -22
-43 -43 c-34 -35 -46 -41 -61 -33 -14 8 -18 22 -18 64 0 64 8 67 78 34z m-240
-174 c-3 -17 -12 -20 -60 -23 -67 -3 -71 4 -37 77 l20 44 40 -39 c25 -24 39
-46 37 -59z m377 8 l7 -33 -56 0 c-42 0 -57 4 -65 18 -8 14 -2 25 32 59 l41
43 17 -28 c9 -15 20 -42 24 -59z m-375 -121 c0 -10 -17 -35 -38 -56 l-39 -37
-17 25 c-9 15 -19 40 -23 56 l-5 30 61 0 c52 0 61 -3 61 -18z m380 6 c-1 -20
-38 -98 -47 -98 -5 0 -26 17 -46 38 -52 54 -44 72 34 72 41 0 59 -4 59 -12z
m-100 -156 c0 -6 -85 -42 -102 -42 -15 0 -18 9 -18 55 0 78 21 87 78 32 23
-22 42 -43 42 -45z m-190 17 l0 -61 -32 8 c-18 3 -43 13 -56 22 l-23 15 37 39
c21 21 46 38 56 38 15 0 18 -9 18 -61z"/>
<path d="M1560 1890 c-12 -12 -20 -33 -20 -55 0 -22 8 -43 20 -55 20 -20 33
-20 918 -20 l899 0 21 23 c29 31 29 77 -1 105 l-23 22 -897 0 c-884 0 -897 0
-917 -20z"/>
</g>
</svg>
