<?xml version="1.0" standalone="no"?>
<!DOCTYPE svg PUBLIC "-//W3C//DTD SVG 20010904//EN"
 "http://www.w3.org/TR/2001/REC-SVG-20010904/DTD/svg10.dtd">
<svg version="1.0" xmlns="http://www.w3.org/2000/svg"
 width="512.000000pt" height="512.000000pt" viewBox="0 0 512.000000 512.000000"
 preserveAspectRatio="xMidYMid meet">

<g transform="translate(0.000000,512.000000) scale(0.100000,-0.100000)"
fill="#000000" stroke="none">
<path d="M2685 3264 c-218 -13 -502 -57 -647 -98 -115 -34 -328 -107 -633
-219 -143 -52 -303 -105 -355 -117 -128 -30 -260 -72 -408 -131 -253 -101
-392 -185 -615 -371 l-28 -23 20 -48 c20 -47 20 -51 5 -113 -14 -56 -15 -67
-3 -79 10 -10 111 -18 394 -33 209 -10 383 -17 387 -15 4 2 -3 26 -17 52 -96
190 -24 444 160 566 83 54 155 76 255 76 100 0 172 -22 255 -77 178 -118 250
-349 171 -546 -14 -34 -24 -63 -23 -63 1 -1 475 4 1052 11 578 7 1105 13 1172
13 l123 1 -19 48 c-68 172 -34 356 90 487 179 190 470 194 654 10 114 -114
161 -281 121 -433 -13 -52 -13 -52 11 -52 34 0 88 25 104 47 8 11 38 33 68 49
53 29 54 29 98 142 25 61 42 119 39 128 -3 8 -20 20 -36 26 -17 6 -29 15 -27
22 2 6 10 44 17 83 15 82 8 99 -49 123 l-28 11 13 72 c20 104 18 134 -8 151
-36 22 -610 146 -933 200 -178 30 -473 68 -675 86 -120 11 -601 20 -705 14z
m336 -234 c26 -74 46 -136 44 -137 -10 -13 -605 -76 -833 -89 l-122 -7 1 52
c4 94 -49 113 -207 76 -71 -16 -94 -26 -118 -51 -26 -25 -19 -43 31 -74 l47
-30 -62 0 -63 0 3 111 3 111 140 44 c343 108 502 132 860 130 l230 -1 46 -135z
m339 93 c123 -20 272 -58 318 -82 l37 -19 -40 -11 c-60 -16 -301 -68 -378 -82
-41 -8 -71 -9 -76 -3 -9 9 -71 200 -71 217 0 10 65 4 210 -20z m-1670 -249 l0
-96 -47 7 c-27 4 -83 18 -126 32 -107 33 -102 46 43 105 63 26 118 47 123 48
4 0 7 -43 7 -96z"/>
<path d="M4270 2669 c-228 -45 -371 -290 -301 -516 90 -289 460 -380 670 -164
279 286 23 757 -369 680z m50 -204 c0 -42 -4 -56 -18 -64 -15 -8 -27 -2 -62
34 l-44 44 45 20 c71 33 79 30 79 -34z m156 29 l25 -17 -39 -40 c-54 -54 -72
-46 -72 29 l0 57 30 -6 c16 -4 42 -14 56 -23z m-283 -112 c52 -53 44 -72 -33
-72 l-59 0 9 28 c11 39 32 82 40 82 3 0 23 -17 43 -38z m381 13 c9 -14 19 -39
23 -55 l6 -30 -56 0 c-78 0 -89 21 -39 73 20 20 39 37 43 37 4 0 14 -11 23
-25z m-349 -176 c10 -31 -63 -106 -83 -86 -16 17 -42 89 -35 99 2 5 28 8 58 8
46 0 55 -3 60 -21z m375 4 c0 -10 -9 -38 -21 -62 l-20 -44 -39 38 c-38 37 -49
63 -33 78 3 4 30 7 60 7 44 0 53 -3 53 -17z m-296 -79 c12 -5 16 -21 16 -65
l0 -59 -27 6 c-35 9 -83 32 -83 41 0 6 71 83 76 83 1 0 9 -3 18 -6z m161 -34
c21 -22 37 -41 34 -43 -10 -10 -54 -30 -80 -37 l-29 -9 0 59 c0 53 5 66 30 69
3 1 23 -17 45 -39z"/>
<path d="M1080 2641 c-233 -75 -348 -337 -244 -557 77 -162 258 -257 431 -225
328 60 451 452 216 687 -103 102 -263 140 -403 95z m80 -191 c0 -79 -17 -87
-71 -34 -31 31 -37 41 -27 51 10 9 64 33 96 42 1 1 2 -26 2 -59z m163 30 c15
-7 27 -16 27 -20 0 -3 -18 -24 -40 -45 -50 -49 -73 -41 -78 25 -6 73 6 79 91
40z m122 -158 l7 -32 -56 0 c-42 0 -57 4 -65 18 -8 14 -2 25 31 59 l42 42 17
-28 c9 -15 20 -42 24 -59z m-402 40 c52 -54 44 -72 -34 -72 l-59 0 6 28 c9 36
32 82 42 82 4 0 25 -17 45 -38z m31 -159 c5 -11 -5 -29 -31 -55 -20 -21 -41
-38 -45 -38 -10 0 -33 46 -42 83 l-6 27 59 0 c46 0 60 -4 65 -17z m376 5 c-1
-19 -38 -98 -47 -98 -4 0 -24 16 -44 36 -54 53 -45 74 32 74 41 0 59 -4 59
-12z m-282 -140 c3 -67 -4 -71 -77 -37 l-44 20 39 40 c56 57 78 51 82 -23z
m146 24 l37 -39 -25 -17 c-15 -9 -40 -19 -56 -23 l-30 -5 0 54 c0 82 16 89 74
30z"/>
</g>
</svg>
