<svg width="14" height="22" viewBox="0 0 14 22" fill="none" xmlns="http://www.w3.org/2000/svg">
<path d="M0.638114 9.57272L10.8972 0.4731C12.1061 -0.60079 14 0.271984 14 1.90179L14 20.101C14.0003 20.4658 13.8969 20.8229 13.7022 21.1296C13.5075 21.4363 13.2297 21.6796 12.9021 21.8304C12.5745 21.9811 12.2109 22.0329 11.855 21.9796C11.4991 21.9263 11.1659 21.7701 10.8953 21.5297L0.639986 12.4301C0.438979 12.252 0.277876 12.0324 0.167493 11.786C0.0571098 11.5396 9.37867e-07 11.2721 9.61527e-07 11.0014C9.85187e-07 10.7308 0.0571099 10.4633 0.167493 10.2168C0.277876 9.97043 0.438979 9.75081 0.639986 9.57272L0.638114 9.57272Z" fill="#5F5F5F"/>
</svg>
