<svg width="20" height="20" viewBox="0 0 20 20" fill="none" xmlns="http://www.w3.org/2000/svg">
<path d="M3.81252 3.81249C4.04693 3.57815 4.36481 3.4465 4.69627 3.4465C5.02772 3.4465 5.34561 3.57815 5.58002 3.81249L10 8.23249L14.42 3.81249C14.6558 3.58479 14.9715 3.4588 15.2993 3.46164C15.627 3.46449 15.9405 3.59595 16.1723 3.82771C16.404 4.05947 16.5355 4.37299 16.5384 4.70073C16.5412 5.02848 16.4152 5.34423 16.1875 5.57999L11.7675 9.99999L16.1875 14.42C16.4152 14.6557 16.5412 14.9715 16.5384 15.2992C16.5355 15.627 16.404 15.9405 16.1723 16.1723C15.9405 16.404 15.627 16.5355 15.2993 16.5383C14.9715 16.5412 14.6558 16.4152 14.42 16.1875L10 11.7675L5.58002 16.1875C5.34426 16.4152 5.02851 16.5412 4.70076 16.5383C4.37302 16.5355 4.0595 16.404 3.82774 16.1723C3.59598 15.9405 3.46452 15.627 3.46167 15.2992C3.45883 14.9715 3.58482 14.6557 3.81252 14.42L8.23252 9.99999L3.81252 5.57999C3.57818 5.34558 3.44653 5.02769 3.44653 4.69624C3.44653 4.36478 3.57818 4.0469 3.81252 3.81249Z" fill="white"/>
</svg>
