<svg width="14" height="19" viewBox="0 0 14 19" fill="none" xmlns="http://www.w3.org/2000/svg">
<path fill-rule="evenodd" clip-rule="evenodd" d="M13.9746 5.49996H9.00007V4.99994C8.99667 4.09074 8.38042 3.29823 7.50006 3.07093V0H8.00008C11.1173 0.00453124 13.7127 2.39374 13.9746 5.49996V5.49996Z" fill="#B7FF41"/>
<path fill-rule="evenodd" clip-rule="evenodd" d="M6.99999 3.99991C7.55229 3.99991 7.99997 4.44759 7.99997 4.99989V6.99987C7.99997 7.55217 7.55229 7.99985 6.99999 7.99985C6.44769 7.99985 6 7.55217 6 6.99987V4.99989C6 4.44765 6.44769 3.99991 6.99999 3.99991Z" fill="white" fill-opacity="0.6"/>
<path fill-rule="evenodd" clip-rule="evenodd" d="M6 0H6.50002V3.07099C5.61966 3.29828 5.00341 4.09079 5.00001 4.99999V5.50001H0.0255127C0.287418 2.39374 2.88274 0.00453123 6 0Z" fill="white" fill-opacity="0.6"/>
<path fill-rule="evenodd" clip-rule="evenodd" d="M7.99999 19.0001H6.00001C2.68777 18.9965 0.00356837 16.3123 0 13.0001V6.50003H5.00002V7.00005C5.00002 8.1046 5.89545 9.00004 7 9.00004C8.10455 9.00004 8.99998 8.1046 8.99998 7.00005V6.50003H14V13.0001C13.9964 16.3123 11.3122 18.9965 7.99999 19.0001Z" fill="white" fill-opacity="0.6"/>
</svg>
