<svg width="14" height="19" viewBox="0 0 14 19" fill="none" xmlns="http://www.w3.org/2000/svg">
<path fill-rule="evenodd" clip-rule="evenodd" d="M13.9746 5.49996H9.00007V4.99994C8.99667 4.09074 8.38042 3.29823 7.50006 3.07093V0H8.00008C11.1173 0.00453124 13.7127 2.39374 13.9746 5.49996Z" fill="white" fill-opacity="0.6"/>
<path fill-rule="evenodd" clip-rule="evenodd" d="M7.00005 3.99994C7.55235 3.99994 8.00003 4.44762 8.00003 4.99993V6.9999C8.00003 7.5522 7.55235 7.99988 7.00005 7.99988C6.44775 7.99988 6.00006 7.5522 6.00006 6.9999V4.99993C6.00006 4.44768 6.44775 3.99994 7.00005 3.99994Z" fill="white" fill-opacity="0.6"/>
<path fill-rule="evenodd" clip-rule="evenodd" d="M6 0H6.50002V3.07098C5.61966 3.29828 5.00341 4.09079 5.00001 4.99999V5.50001H0.0255127C0.287418 2.39374 2.88274 0.00453123 6 0Z" fill="#B7FF41"/>
<path fill-rule="evenodd" clip-rule="evenodd" d="M7.99999 19.0001H6.00001C2.68777 18.9965 0.00356837 16.3123 0 13.0001V6.50006H5.00002V7.00008C5.00002 8.10464 5.89545 9.00007 7 9.00007C8.10455 9.00007 8.99998 8.10464 8.99998 7.00008V6.50006H14V13.0001C13.9964 16.3123 11.3122 18.9965 7.99999 19.0001Z" fill="white" fill-opacity="0.6"/>
</svg>
