<svg width="46" height="14" viewBox="0 0 46 14" fill="none" xmlns="http://www.w3.org/2000/svg">
<path id="Vector" d="M-1.90735e-06 3.49971H36.5641V0.582957C36.5641 0.359643 36.6931 0.155984 36.8961 0.0582841C37.0986 -0.0385611 37.3399 -0.0134953 37.5181 0.124367L45.7745 6.54121C45.9168 6.65173 46 6.82092 46 6.9998C46 7.17868 45.9168 7.34788 45.7745 7.45839L37.5181 13.8752C37.4121 13.9576 37.2834 14 37.1538 14C37.066 14 36.9779 13.9806 36.8961 13.9413C36.6931 13.8436 36.5641 13.64 36.5641 13.4167V10.4999H-1.90735e-06V3.49971Z" fill="url(#paint0_linear_28_94)" fill-opacity="0.21"/>
<defs>
<linearGradient id="paint0_linear_28_94" x1="46" y1="7" x2="15.5" y2="7" gradientUnits="userSpaceOnUse">
<stop stop-color="white"/>
<stop offset="1" stop-color="#999999" stop-opacity="0"/>
</linearGradient>
</defs>
</svg>
