<svg width="25" height="25" viewBox="0 0 25 25" fill="none" xmlns="http://www.w3.org/2000/svg">
<g id="Group 76">
<rect id="Rectangle 29" width="25" height="25" fill="white" fill-opacity="0.02"/>
<path id="Vector" d="M8.25715 5.09498C8.01025 5.09498 7.76312 5.18946 7.57393 5.37865L6.37864 6.57393C6.00027 6.95231 6.00027 7.56171 6.37865 7.94009L10.3911 11.9526L6.37865 15.9651C6.00027 16.3434 6.00027 16.9528 6.37864 17.3312L7.57393 18.5265C7.95231 18.9049 8.56171 18.9049 8.94009 18.5265L12.9526 14.514L16.9651 18.5265C17.3434 18.9049 17.9528 18.9049 18.3312 18.5265L19.5265 17.3312C19.9049 16.9528 19.9049 16.3434 19.5265 15.9651L15.514 11.9526L19.5265 7.94009C19.9049 7.56171 19.9049 6.95231 19.5265 6.57393L18.3312 5.37864C17.9528 5.00027 17.3434 5.00027 16.9651 5.37864L12.9526 9.39113L8.94009 5.37865C8.7509 5.18946 8.50405 5.09498 8.25715 5.09498Z" fill="white" fill-opacity="0.11"/>
</g>
</svg>
