<svg width="10" height="14" viewBox="0 0 10 14" fill="none" xmlns="http://www.w3.org/2000/svg">
<path d="M9.53748 10.6713C9.83365 10.9523 10 11.3333 10 11.7305C10 12.1277 9.83365 12.5087 9.53748 12.7897L8.72035 13.5641C8.42403 13.8433 8.02319 14 7.60537 14C7.18755 14 6.78671 13.8433 6.49039 13.5641L0.306599 7.69853C0.110224 7.51131 0 7.25804 0 6.99406C0 6.73007 0.110224 6.4768 0.306599 6.28958L6.49039 0.423973C6.79059 0.151867 7.18998 0 7.60537 0C8.02077 0 8.42015 0.151867 8.72035 0.423973L9.53748 1.19839C9.83365 1.47943 10 1.8604 10 2.2576C10 2.6548 9.83365 3.03577 9.53748 3.31681L5.65745 6.99406L9.53748 10.6713Z" fill="white" fill-opacity="0.76"/>
</svg>
