<svg width="26" height="18" viewBox="0 0 26 18" fill="none" xmlns="http://www.w3.org/2000/svg">
<path fill-rule="evenodd" clip-rule="evenodd" d="M2.25977 0.0554121C2.12012 0.0818515 1.82162 0.192927 1.59646 0.302213C1.02847 0.577909 0.578144 1.03055 0.308141 1.59718C0.049207 2.14044 0 2.44109 0 3.47918C0 4.18952 0.0136094 4.34923 0.0797773 4.41591C0.151937 4.48853 1.39461 4.49626 13 4.49626C24.6054 4.49626 25.8481 4.48853 25.9202 4.41591C25.9864 4.34923 26 4.18952 26 3.47918C26 2.44094 25.9508 2.14049 25.6917 1.59672C25.3201 0.817193 24.524 0.201366 23.6928 0.0506048C23.3041 -0.0199172 2.63326 -0.0152634 2.25977 0.0554121ZM0.0797773 6.21308C0.00842969 6.28493 0 6.77424 0 10.8319C0 13.829 0.0184336 15.4734 0.0542852 15.6737C0.14498 16.1808 0.458402 16.7655 0.847387 17.1535C1.23652 17.5415 1.81243 17.8528 2.3072 17.9425C2.72929 18.0192 23.2707 18.0192 23.6928 17.9425C24.1964 17.8512 24.7769 17.5356 25.1622 17.1438C25.5475 16.752 25.8566 16.172 25.9457 15.6737C25.9816 15.4734 26 13.829 26 10.8319C26 6.77424 25.9916 6.28493 25.9202 6.21308C25.8481 6.14046 24.6054 6.13274 13 6.13274C1.39461 6.13274 0.151937 6.14046 0.0797773 6.21308ZM6.12518 11.5823C6.44952 11.8265 6.47461 11.9053 6.47461 12.6787C6.47461 13.3144 6.46384 13.4016 6.3699 13.5283C6.12762 13.8551 6.04932 13.8804 5.28125 13.8804C4.64994 13.8804 4.56336 13.8696 4.43752 13.775C4.13278 13.5459 4.08931 13.433 4.07057 12.8231C4.0494 12.1333 4.0787 11.9608 4.25242 11.7529C4.47307 11.4888 4.62069 11.4497 5.34122 11.464C5.90037 11.4752 6.00356 11.4907 6.12518 11.5823Z" fill="#939600"/>
</svg>
