<svg width="26" height="26" viewBox="0 0 26 26" fill="none" xmlns="http://www.w3.org/2000/svg">
<path fill-rule="evenodd" clip-rule="evenodd" d="M16.605 0.029427C16.5631 0.044147 12.8216 3.75979 8.29066 8.28641C-0.349027 16.9176 -0.0710888 16.626 0.0276669 16.9563C0.0685909 17.0932 8.67537 25.7319 8.92858 25.8901C9.31543 26.132 8.65374 26.7494 17.7079 17.6981C26.3485 9.06028 26.0711 9.35149 25.9724 9.02135C25.9346 8.89501 17.4781 0.390018 17.1432 0.141502C16.9574 0.00359073 16.7819 -0.0329556 16.605 0.029427ZM22.5825 8.85339C22.7446 9.01546 22.759 9.05236 22.7334 9.24271C22.7074 9.43691 22.6152 9.54305 21.5213 10.6373C20.7529 11.406 20.2809 11.8403 20.1764 11.8748C19.8673 11.9768 19.4991 11.6994 19.4991 11.3645C19.4991 11.1564 19.6572 10.9706 20.8053 9.82908C21.9587 8.68228 21.9682 8.67431 22.1851 8.67431C22.3672 8.67431 22.4331 8.70401 22.5825 8.85339ZM12.7276 9.89826C13.8111 10.2326 14.8493 11.0368 15.5466 12.0819C16.2342 13.1124 16.4393 14.3236 16.0623 15.1283C15.8621 15.5558 15.5698 15.8486 15.1402 16.0521C14.8152 16.206 14.7785 16.2118 14.1678 16.2079C13.5954 16.2043 13.4927 16.1891 13.1214 16.0528C11.3834 15.4149 9.93483 13.6798 9.77448 12.0438C9.66496 10.9267 10.2993 10.0102 11.3334 9.79126C11.6548 9.72324 12.3279 9.77492 12.7276 9.89826ZM1.60121 12.5557C0.903065 12.8144 0.26986 13.0757 0.194105 13.1366C-0.0242243 13.3119 -0.0339221 13.5214 0.152165 14.0415C0.240512 14.2884 0.333734 14.5238 0.359273 14.5645C0.395374 14.622 0.691184 14.3534 1.68879 13.3568C2.39451 12.6519 2.94906 12.0775 2.92124 12.0803C2.89336 12.0832 2.29935 12.2971 1.60121 12.5557ZM22.0366 14.8934C20.8786 16.0513 19.9582 16.9988 19.9913 16.9988C20.0244 16.9988 20.5233 16.8253 21.1 16.6132C22.2358 16.1957 22.3725 16.1769 22.5902 16.4085C22.8313 16.665 22.7563 17.1114 22.4483 17.2538C22.124 17.4038 19.5853 18.3185 19.4935 18.3185C19.3527 18.3185 19.1887 18.2275 19.0675 18.0822L18.966 17.9605L16.7341 20.1932C15.5066 21.4212 14.5127 22.4345 14.5255 22.445C14.543 22.4594 24.2199 18.9121 25.5582 18.4006C25.8152 18.3024 25.9976 18.0867 25.998 17.8806C25.9982 17.7695 24.2419 12.8912 24.1779 12.825C24.1582 12.8047 23.1947 13.7355 22.0366 14.8934ZM6.16916 14.1269C6.34773 14.2015 6.50092 14.4259 6.50092 14.6131C6.50092 14.8212 6.34286 15.007 5.19475 16.1485C4.10529 17.2318 4.02182 17.3033 3.84781 17.3033C3.58973 17.3033 3.42827 17.2177 3.32515 17.0263C3.14596 16.6936 3.19394 16.6237 4.48264 15.3381C5.51697 14.3063 5.78708 14.0717 5.95672 14.0579C5.97855 14.0562 6.07416 14.0872 6.16916 14.1269ZM2.85726 21.4655C2.97511 21.8196 4.38577 25.6668 4.42375 25.7377C4.48264 25.8478 4.72941 25.9831 4.87122 25.9831C4.97287 25.9831 6.64578 25.3883 6.71554 25.3273C6.7359 25.3095 5.87035 24.4162 4.79221 23.3422C3.71402 22.2682 2.8433 21.4237 2.85726 21.4655Z" fill="#00960F" fill-opacity="0.95"/>
</svg>
