<svg width="15" height="16" viewBox="0 0 15 16" fill="none" xmlns="http://www.w3.org/2000/svg">
<mask id="path-1-outside-1_13_77" maskUnits="userSpaceOnUse" x="0" y="0" width="15" height="16" fill="black">
<rect fill="white" width="15" height="16"/>
<path fill-rule="evenodd" clip-rule="evenodd" d="M8.65 1.22525L10.2727 1.50103C11.0427 1.63145 11.6673 1.73742 12.1553 1.8855C12.664 2.04038 13.084 2.25639 13.4073 2.64493C13.7307 3.03416 13.8713 3.49199 13.9367 4.02862C14 4.54351 14 5.18882 14 5.98493V10.0151C14 10.8105 14 11.4551 13.9367 11.9707C13.8713 12.5073 13.7307 12.9652 13.4073 13.3544C13.084 13.7429 12.664 13.959 12.1553 14.1131C11.6673 14.2619 11.0427 14.3679 10.2727 14.4983L8.65 14.7741C7.96133 14.8909 7.39133 14.9881 6.93667 14.9989C6.45933 15.0105 6.01733 14.9324 5.648 14.6138C5.33667 14.3455 5.18267 13.9956 5.10133 13.6037H4.79733C4.04267 13.6037 3.42533 13.6037 2.93733 13.5371C2.42867 13.4672 1.98733 13.3164 1.63467 12.957C1.282 12.5977 1.134 12.1487 1.06533 11.629C1 11.1332 1 10.5042 1 9.73386V6.26547C1 5.49585 1 4.86752 1.06533 4.37029C1.134 3.85201 1.282 3.40233 1.63467 3.04299C1.98733 2.68365 2.428 2.53285 2.938 2.46289C3.42467 2.39632 4.042 2.39632 4.798 2.39632H5.102C5.182 2.00438 5.33667 1.65455 5.64867 1.38623C6.01733 1.06698 6.45933 0.989538 6.93667 1.00109C7.39133 1.01195 7.96133 1.10909 8.65 1.22593M5 11.6236C5 11.9741 5 12.2947 5.00733 12.5848H4.83333C4.03333 12.5848 3.484 12.5834 3.07133 12.527C2.67267 12.4727 2.478 12.3749 2.342 12.2363C2.206 12.0984 2.11 11.8994 2.05667 11.4932C2.00133 11.0727 2 10.513 2 9.69785V6.30147C2 5.48634 2.00133 4.92662 2.05667 4.50615C2.11 4.09994 2.206 3.90159 2.342 3.76302C2.47733 3.62445 2.67267 3.52663 3.07133 3.47229C3.484 3.41591 4.03333 3.41455 4.83333 3.41455H5.00733C5 3.7046 5 4.02522 5 4.37573V11.6236ZM6.91267 2.01864C6.55067 2.00981 6.39733 2.07434 6.29467 2.16265C6.192 2.25095 6.10467 2.39496 6.054 2.76041C6.00067 3.13877 6 3.65434 6 4.41445V11.5849C6 12.345 6.00133 12.8606 6.054 13.2396C6.10467 13.6044 6.192 13.7484 6.29467 13.8367C6.39733 13.925 6.55067 13.9888 6.91267 13.98C7.288 13.9712 7.78733 13.8876 8.52267 13.7626L10.076 13.4991C10.886 13.3612 11.4487 13.2647 11.87 13.137C12.278 13.0134 12.494 12.8762 12.6447 12.6955C12.7953 12.5141 12.8913 12.275 12.9447 11.8444C12.9993 11.4001 13 10.8187 13 9.98111V6.01822C13 5.18067 12.9993 4.59921 12.9447 4.15496C12.8913 3.7243 12.7947 3.48452 12.6447 3.30383C12.494 3.12314 12.278 2.98593 11.87 2.8623C11.4487 2.7346 10.886 2.63814 10.0753 2.50025L8.52267 2.23669C7.78733 2.1117 7.288 2.02815 6.91267 2.01932"/>
</mask>
<path fill-rule="evenodd" clip-rule="evenodd" d="M8.65 1.22525L10.2727 1.50103C11.0427 1.63145 11.6673 1.73742 12.1553 1.8855C12.664 2.04038 13.084 2.25639 13.4073 2.64493C13.7307 3.03416 13.8713 3.49199 13.9367 4.02862C14 4.54351 14 5.18882 14 5.98493V10.0151C14 10.8105 14 11.4551 13.9367 11.9707C13.8713 12.5073 13.7307 12.9652 13.4073 13.3544C13.084 13.7429 12.664 13.959 12.1553 14.1131C11.6673 14.2619 11.0427 14.3679 10.2727 14.4983L8.65 14.7741C7.96133 14.8909 7.39133 14.9881 6.93667 14.9989C6.45933 15.0105 6.01733 14.9324 5.648 14.6138C5.33667 14.3455 5.18267 13.9956 5.10133 13.6037H4.79733C4.04267 13.6037 3.42533 13.6037 2.93733 13.5371C2.42867 13.4672 1.98733 13.3164 1.63467 12.957C1.282 12.5977 1.134 12.1487 1.06533 11.629C1 11.1332 1 10.5042 1 9.73386V6.26547C1 5.49585 1 4.86752 1.06533 4.37029C1.134 3.85201 1.282 3.40233 1.63467 3.04299C1.98733 2.68365 2.428 2.53285 2.938 2.46289C3.42467 2.39632 4.042 2.39632 4.798 2.39632H5.102C5.182 2.00438 5.33667 1.65455 5.64867 1.38623C6.01733 1.06698 6.45933 0.989538 6.93667 1.00109C7.39133 1.01195 7.96133 1.10909 8.65 1.22593M5 11.6236C5 11.9741 5 12.2947 5.00733 12.5848H4.83333C4.03333 12.5848 3.484 12.5834 3.07133 12.527C2.67267 12.4727 2.478 12.3749 2.342 12.2363C2.206 12.0984 2.11 11.8994 2.05667 11.4932C2.00133 11.0727 2 10.513 2 9.69785V6.30147C2 5.48634 2.00133 4.92662 2.05667 4.50615C2.11 4.09994 2.206 3.90159 2.342 3.76302C2.47733 3.62445 2.67267 3.52663 3.07133 3.47229C3.484 3.41591 4.03333 3.41455 4.83333 3.41455H5.00733C5 3.7046 5 4.02522 5 4.37573V11.6236ZM6.91267 2.01864C6.55067 2.00981 6.39733 2.07434 6.29467 2.16265C6.192 2.25095 6.10467 2.39496 6.054 2.76041C6.00067 3.13877 6 3.65434 6 4.41445V11.5849C6 12.345 6.00133 12.8606 6.054 13.2396C6.10467 13.6044 6.192 13.7484 6.29467 13.8367C6.39733 13.925 6.55067 13.9888 6.91267 13.98C7.288 13.9712 7.78733 13.8876 8.52267 13.7626L10.076 13.4991C10.886 13.3612 11.4487 13.2647 11.87 13.137C12.278 13.0134 12.494 12.8762 12.6447 12.6955C12.7953 12.5141 12.8913 12.275 12.9447 11.8444C12.9993 11.4001 13 10.8187 13 9.98111V6.01822C13 5.18067 12.9993 4.59921 12.9447 4.15496C12.8913 3.7243 12.7947 3.48452 12.6447 3.30383C12.494 3.12314 12.278 2.98593 11.87 2.8623C11.4487 2.7346 10.886 2.63814 10.0753 2.50025L8.52267 2.23669C7.78733 2.1117 7.288 2.02815 6.91267 2.01932" fill="#101214" fill-opacity="0.85"/>
<path d="M10.2727 1.50103L10.2392 1.6982L10.2393 1.69822L10.2727 1.50103ZM12.1553 1.8855L12.2136 1.69417L12.2134 1.69412L12.1553 1.8855ZM13.4073 2.64493L13.5612 2.51713L13.5611 2.517L13.4073 2.64493ZM13.9367 4.02862L13.7381 4.05279L13.7382 4.05303L13.9367 4.02862ZM13.9367 11.9707L13.7382 11.9463L13.7381 11.9465L13.9367 11.9707ZM13.4073 13.3544L13.5611 13.4823L13.5612 13.4822L13.4073 13.3544ZM12.1553 14.1131L12.0973 13.9217L12.097 13.9218L12.1553 14.1131ZM10.2727 14.4983L10.2393 14.3011L10.2392 14.3011L10.2727 14.4983ZM8.65 14.7741L8.68345 14.9713L8.68351 14.9713L8.65 14.7741ZM6.93667 14.9989L6.93189 14.799L6.93183 14.799L6.93667 14.9989ZM5.648 14.6138L5.77863 14.4623L5.77857 14.4623L5.648 14.6138ZM5.10133 13.6037L5.29716 13.5631L5.26409 13.4037H5.10133V13.6037ZM2.93733 13.5371L2.91008 13.7353L2.9103 13.7353L2.93733 13.5371ZM1.06533 11.629L0.867047 11.6552L0.867057 11.6552L1.06533 11.629ZM1.06533 4.37029L0.867066 4.34403L0.867038 4.34424L1.06533 4.37029ZM2.938 2.46289L2.9109 2.26473L2.91082 2.26474L2.938 2.46289ZM5.102 2.39632V2.59632H5.2653L5.29796 2.43632L5.102 2.39632ZM5.64867 1.38623L5.77907 1.53787L5.77959 1.53742L5.64867 1.38623ZM6.93667 1.00109L6.93183 1.20103L6.93189 1.20103L6.93667 1.00109ZM5.00733 12.5848V12.7848H5.21245L5.20727 12.5797L5.00733 12.5848ZM3.07133 12.527L3.09841 12.3289L3.09835 12.3289L3.07133 12.527ZM2.342 12.2363L2.48474 12.0962L2.4844 12.0959L2.342 12.2363ZM2.05667 11.4932L2.25496 11.4671L2.25496 11.4671L2.05667 11.4932ZM2.05667 4.50615L2.25496 4.53224L2.25496 4.53218L2.05667 4.50615ZM2.342 3.76302L2.48474 3.90311L2.48508 3.90276L2.342 3.76302ZM3.07133 3.47229L3.09835 3.67046L3.09841 3.67045L3.07133 3.47229ZM5.00733 3.41455L5.20727 3.41961L5.21245 3.21455H5.00733V3.41455ZM6.054 2.76041L6.25204 2.78833L6.25211 2.78788L6.054 2.76041ZM6.054 13.2396L6.2521 13.2121L6.2521 13.2121L6.054 13.2396ZM6.91267 13.98L6.90796 13.7801L6.90779 13.7801L6.91267 13.98ZM8.52267 13.7626L8.48921 13.5655L8.48915 13.5655L8.52267 13.7626ZM10.076 13.4991L10.1095 13.6963L10.1096 13.6962L10.076 13.4991ZM11.87 13.137L11.812 12.9456L11.812 12.9456L11.87 13.137ZM12.6447 12.6955L12.7983 12.8236L12.7985 12.8233L12.6447 12.6955ZM12.9447 11.8444L13.1432 11.8689L13.1432 11.8688L12.9447 11.8444ZM12.9447 4.15496L13.1432 4.13054L13.1432 4.13038L12.9447 4.15496ZM12.6447 3.30383L12.7986 3.17608L12.7983 3.17575L12.6447 3.30383ZM11.87 2.8623L11.812 3.0537L11.812 3.05371L11.87 2.8623ZM10.0753 2.50025L10.1089 2.30308L10.1088 2.30307L10.0753 2.50025ZM8.52267 2.23669L8.48915 2.43386L8.4892 2.43387L8.52267 2.23669ZM8.61649 1.42242L10.2392 1.6982L10.3062 1.30386L8.68351 1.02807L8.61649 1.42242ZM10.2393 1.69822C11.0139 1.82944 11.6242 1.93333 12.0973 2.07689L12.2134 1.69412C11.7105 1.54151 11.0714 1.43347 10.3061 1.30384L10.2393 1.69822ZM12.0971 2.07683C12.5854 2.2255 12.9646 2.42552 13.2536 2.77286L13.5611 2.517C13.2034 2.08726 12.7426 1.85526 12.2136 1.69417L12.0971 2.07683ZM13.2535 2.77273C13.543 3.12121 13.6753 3.53663 13.7381 4.05279L14.1352 4.00445C14.0674 3.44735 13.9184 2.94711 13.5612 2.51713L13.2535 2.77273ZM13.7382 4.05303C13.7997 4.55299 13.8 5.18418 13.8 5.98493H14.2C14.2 5.19346 14.2003 4.53402 14.1352 4.0042L13.7382 4.05303ZM13.8 5.98493V10.0151H14.2V5.98493H13.8ZM13.8 10.0151C13.8 10.8151 13.7997 11.4457 13.7382 11.9463L14.1352 11.9951C14.2003 11.4646 14.2 10.8059 14.2 10.0151H13.8ZM13.7381 11.9465C13.6753 12.4627 13.543 12.8781 13.2535 13.2266L13.5612 13.4822C13.9184 13.0522 14.0674 12.552 14.1352 11.9949L13.7381 11.9465ZM13.2536 13.2265C12.9646 13.5738 12.5854 13.7738 12.0973 13.9217L12.2134 14.3045C12.7426 14.1441 13.2034 13.9121 13.5611 13.4823L13.2536 13.2265ZM12.097 13.9218C11.6241 14.066 11.014 14.1699 10.2393 14.3011L10.3061 14.6955C11.0713 14.5659 11.7106 14.4578 12.2137 14.3045L12.097 13.9218ZM10.2392 14.3011L8.61649 14.5769L8.68351 14.9713L10.3062 14.6955L10.2392 14.3011ZM8.61655 14.5769C7.92218 14.6947 7.36876 14.7885 6.93189 14.799L6.94145 15.1989C7.41391 15.1876 8.00048 15.0871 8.68345 14.9713L8.61655 14.5769ZM6.93183 14.799C6.47813 14.81 6.09451 14.7348 5.77863 14.4623L5.51737 14.7652C5.94016 15.1299 6.44053 15.211 6.9415 15.1989L6.93183 14.799ZM5.77857 14.4623C5.51161 14.2322 5.37303 13.9287 5.29716 13.5631L4.90551 13.6443C4.9923 14.0626 5.16172 14.4587 5.51743 14.7653L5.77857 14.4623ZM5.10133 13.4037H4.79733V13.8037H5.10133V13.4037ZM4.79733 13.4037C4.03748 13.4037 3.43584 13.4033 2.96437 13.339L2.9103 13.7353C3.41483 13.8041 4.04786 13.8037 4.79733 13.8037V13.4037ZM2.96459 13.339C2.47863 13.2721 2.08685 13.1322 1.77741 12.8169L1.49193 13.0971C1.88782 13.5005 2.3787 13.6622 2.91008 13.7353L2.96459 13.339ZM1.77741 12.8169C1.46744 12.5011 1.32944 12.1011 1.26361 11.6028L0.867057 11.6552C0.938555 12.1963 1.09656 12.6943 1.49193 13.0971L1.77741 12.8169ZM1.26362 11.6029C1.20039 11.123 1.2 10.5092 1.2 9.73386H0.8C0.8 10.4991 0.799607 11.1433 0.867047 11.6552L1.26362 11.6029ZM1.2 9.73386V6.26547H0.8V9.73386H1.2ZM1.2 6.26547C1.2 5.49085 1.20039 4.87764 1.26363 4.39635L0.867038 4.34424C0.799611 4.8574 0.8 5.50085 0.8 6.26547H1.2ZM1.2636 4.39656C1.32944 3.89962 1.46745 3.4989 1.77741 3.18308L1.49193 2.9029C1.09655 3.30575 0.938561 3.80439 0.867066 4.34403L1.2636 4.39656ZM1.77741 3.18308C2.08686 2.86777 2.47798 2.72787 2.96518 2.66103L2.91082 2.26474C2.37802 2.33784 1.88781 2.49953 1.49193 2.9029L1.77741 3.18308ZM2.9651 2.66104C3.43519 2.59674 4.03677 2.59632 4.798 2.59632V2.19632C4.04723 2.19632 3.41414 2.1959 2.9109 2.26473L2.9651 2.66104ZM4.798 2.59632H5.102V2.19632H4.798V2.59632ZM5.29796 2.43632C5.37243 2.07149 5.51146 1.76801 5.77907 1.53787L5.51826 1.2346C5.16187 1.54108 4.99158 1.93726 4.90604 2.35632L5.29796 2.43632ZM5.77959 1.53742C6.09457 1.26466 6.47783 1.19004 6.93183 1.20103L6.9415 0.801144C6.44083 0.789032 5.94009 0.869292 5.51774 1.23505L5.77959 1.53742ZM6.93189 1.20103C7.36876 1.21147 7.92218 1.30531 8.61655 1.42311L8.68345 1.02874C8.00048 0.912874 7.41391 0.812436 6.94145 0.801142L6.93189 1.20103ZM4.8 11.6236C4.8 11.9734 4.79999 12.2968 4.8074 12.5898L5.20727 12.5797C5.20001 12.2927 5.2 11.9748 5.2 11.6236H4.8ZM5.00733 12.3848H4.83333V12.7848H5.00733V12.3848ZM4.83333 12.3848C4.02756 12.3848 3.49438 12.383 3.09841 12.3289L3.04426 12.7252C3.47362 12.7839 4.03911 12.7848 4.83333 12.7848V12.3848ZM3.09835 12.3289C2.72308 12.2777 2.57774 12.191 2.48474 12.0962L2.19926 12.3764C2.37826 12.5588 2.62225 12.6677 3.04432 12.7252L3.09835 12.3289ZM2.4844 12.0959C2.39136 12.0015 2.30545 11.8517 2.25496 11.4671L1.85837 11.5192C1.91455 11.9471 2.02064 12.1953 2.1996 12.3767L2.4844 12.0959ZM2.25496 11.4671C2.20174 11.0627 2.2 10.5186 2.2 9.69785H1.8C1.8 10.5074 1.80093 11.0827 1.85838 11.5193L2.25496 11.4671ZM2.2 9.69785V6.30147H1.8V9.69785H2.2ZM2.2 6.30147C2.2 5.48077 2.20174 4.93662 2.25496 4.53224L1.85838 4.48005C1.80093 4.91662 1.8 5.49191 1.8 6.30147H2.2ZM2.25496 4.53218C2.30541 4.148 2.39124 3.99838 2.48474 3.90311L2.19926 3.62293C2.02076 3.8048 1.91459 4.05189 1.85837 4.48011L2.25496 4.53218ZM2.48508 3.90276C2.57716 3.80848 2.72275 3.72166 3.09835 3.67046L3.04432 3.27412C2.62259 3.33161 2.37751 3.44042 2.19892 3.62328L2.48508 3.90276ZM3.09841 3.67045C3.49438 3.61635 4.02756 3.61455 4.83333 3.61455V3.21455C4.03911 3.21455 3.47362 3.21547 3.04426 3.27413L3.09841 3.67045ZM4.83333 3.61455H5.00733V3.21455H4.83333V3.61455ZM4.8074 3.4095C4.79999 3.70257 4.8 4.02589 4.8 4.37573H5.2C5.2 4.02456 5.20001 3.70663 5.20727 3.41961L4.8074 3.4095ZM4.8 4.37573V11.6236H5.2V4.37573H4.8ZM6.91754 1.8187C6.53085 1.80927 6.3198 1.87722 6.16425 2.01102L6.42509 2.31427C6.47487 2.27146 6.57048 2.21035 6.90779 2.21858L6.91754 1.8187ZM6.16425 2.01102C6.00874 2.14477 5.90966 2.34515 5.8559 2.73294L6.25211 2.78788C6.29967 2.44477 6.37526 2.35713 6.42509 2.31427L6.16425 2.01102ZM5.85596 2.73249C5.80018 3.12817 5.8 3.66081 5.8 4.41445H6.2C6.2 3.64787 6.20115 3.14936 6.25204 2.78833L5.85596 2.73249ZM5.8 4.41445V11.5849H6.2V4.41445H5.8ZM5.8 11.5849C5.8 12.3389 5.80087 12.8711 5.8559 13.2671L6.2521 13.2121C6.20179 12.8501 6.2 12.3511 6.2 11.5849H5.8ZM5.8559 13.2671C5.90968 13.6543 6.00879 13.8546 6.16425 13.9883L6.42509 13.6851C6.37521 13.6422 6.29965 13.5545 6.2521 13.2121L5.8559 13.2671ZM6.16425 13.9883C6.32008 14.1223 6.53142 14.1894 6.91754 14.1799L6.90779 13.7801C6.56992 13.7883 6.47459 13.7276 6.42509 13.6851L6.16425 13.9883ZM6.91737 14.18C7.31073 14.1707 7.82719 14.0837 8.55618 13.9598L8.48915 13.5655C7.74748 13.6915 7.26527 13.7717 6.90796 13.7801L6.91737 14.18ZM8.55612 13.9598L10.1095 13.6963L10.0425 13.3019L8.48921 13.5655L8.55612 13.9598ZM10.1096 13.6962C10.9142 13.5593 11.4918 13.4607 11.928 13.3284L11.812 12.9456C11.4056 13.0688 10.8578 13.1631 10.0424 13.3019L10.1096 13.6962ZM11.928 13.3284C12.357 13.1984 12.6135 13.0451 12.7983 12.8236L12.4911 12.5674C12.3745 12.7072 12.199 12.8283 11.812 12.9456L11.928 13.3284ZM12.7985 12.8233C12.9831 12.601 13.0874 12.3194 13.1432 11.8689L12.7462 11.8198C12.6953 12.2306 12.6075 12.4272 12.4908 12.5677L12.7985 12.8233ZM13.1432 11.8688C13.1997 11.4095 13.2 10.8134 13.2 9.98111H12.8C12.8 10.8239 12.799 11.3908 12.7462 11.8199L13.1432 11.8688ZM13.2 9.98111V6.01822H12.8V9.98111H13.2ZM13.2 6.01822C13.2 5.18594 13.1997 4.58987 13.1432 4.13054L12.7462 4.17939C12.799 4.60855 12.8 5.1754 12.8 6.01822H13.2ZM13.1432 4.13038C13.0873 3.67977 12.9824 3.39757 12.7986 3.17608L12.4908 3.43158C12.6069 3.57146 12.6953 3.76883 12.7462 4.17954L13.1432 4.13038ZM12.7983 3.17575C12.6135 2.95418 12.357 2.80088 11.928 2.67089L11.812 3.05371C12.199 3.17098 12.3745 3.29211 12.4911 3.43191L12.7983 3.17575ZM11.928 2.6709C11.4917 2.53867 10.9142 2.44007 10.1089 2.30308L10.0418 2.69741C10.8578 2.83621 11.4056 2.93053 11.812 3.0537L11.928 2.6709ZM10.1088 2.30307L8.55614 2.03951L8.4892 2.43387L10.0419 2.69743L10.1088 2.30307ZM8.55618 2.03952C7.82719 1.91561 7.31073 1.82863 6.91737 1.81938L6.90796 2.21926C7.26527 2.22767 7.74748 2.3078 8.48915 2.43386L8.55618 2.03952Z" fill="#101214" fill-opacity="0.85" mask="url(#path-1-outside-1_13_77)"/>
</svg>
