<svg width="38" height="32" viewBox="0 0 38 32" fill="none" xmlns="http://www.w3.org/2000/svg">
<path d="M1.82249 12.1253L3.60171 11.1225V14.906H34.4415V11.1567L36.197 12.1253C36.4681 12.2616 36.7835 12.2919 37.0773 12.21C37.3711 12.1281 37.6207 11.9403 37.7738 11.6859C37.9269 11.4314 37.9717 11.1299 37.8989 10.8444C37.8261 10.559 37.6414 10.3115 37.3832 10.1538L19.0216 0L0.636339 10.1538C0.494588 10.2251 0.369302 10.3231 0.268017 10.4421C0.166732 10.5611 0.0915422 10.6985 0.04697 10.8461C0.00239788 10.9937 -0.0106351 11.1485 0.0086551 11.301C0.0279453 11.4536 0.0791601 11.6009 0.159218 11.7339C0.239276 11.867 0.346523 11.9831 0.474508 12.0753C0.602492 12.1675 0.748569 12.2339 0.903949 12.2705C1.05933 12.3071 1.2208 12.3131 1.37866 12.2881C1.53651 12.2632 1.68748 12.2078 1.82249 12.1253ZM18.8437 4.77492C18.988 4.69491 19.1516 4.65278 19.3182 4.65278C19.4847 4.65278 19.6484 4.69491 19.7926 4.77492L27.7635 9.20797H23.9441L19.3182 6.65527L14.6922 9.20797H10.8847L18.8437 4.77492Z" fill="#95D9FF"/>
<path d="M36.6359 27.4416H35.6277V26.4729C35.6277 26.1254 35.484 25.792 35.2282 25.5462C34.9724 25.3005 34.6254 25.1624 34.2636 25.1624H30.8831V16.7635H26.1385V25.1624H21.3939V16.7635H16.6494V25.1624H11.9048V16.7635H7.16018V25.1624H3.77966C3.41788 25.1624 3.07093 25.3005 2.81511 25.5462C2.5593 25.792 2.41559 26.1254 2.41559 26.4729V27.4416H1.40736C1.04559 27.4416 0.698632 27.5797 0.44282 27.8254C0.187007 28.0712 0.0432932 28.4046 0.0432932 28.7521V32H38V28.7521C38 28.4046 37.8563 28.0712 37.6005 27.8254C37.3447 27.5797 36.9977 27.4416 36.6359 27.4416Z" fill="#95D9FF"/>
</svg>
