<svg width="17" height="14" viewBox="0 0 17 14" fill="none" xmlns="http://www.w3.org/2000/svg">
<path d="M0.815323 5.30484L1.61129 4.86609V6.52136H15.4081V4.88105L16.1934 5.30484C16.3147 5.36445 16.4558 5.37772 16.5872 5.34189C16.7187 5.30606 16.8303 5.2239 16.8988 5.11257C16.9673 5.00124 16.9873 4.86934 16.9548 4.74444C16.9222 4.61954 16.8396 4.51129 16.7241 4.4423L8.50967 0L0.284678 4.4423C0.221263 4.47347 0.165214 4.51637 0.119902 4.56842C0.0745908 4.62047 0.0409531 4.68059 0.0210129 4.74517C0.00107274 4.80975 -0.00475779 4.87745 0.00387202 4.9442C0.0125018 5.01095 0.0354137 5.07538 0.0712292 5.13359C0.107045 5.19181 0.155024 5.24262 0.21228 5.28296C0.269536 5.3233 0.334886 5.35235 0.404399 5.36834C0.473911 5.38434 0.546149 5.38696 0.616768 5.37605C0.687387 5.36513 0.754926 5.34091 0.815323 5.30484ZM8.43008 2.08903C8.49461 2.05402 8.56782 2.03559 8.64233 2.03559C8.71685 2.03559 8.79006 2.05402 8.85459 2.08903L12.4205 4.02849H10.7118L8.64233 2.91168L6.57282 4.02849H4.86945L8.43008 2.08903Z" fill="white"/>
<path d="M16.3898 12.0057H15.9387V11.5819C15.9387 11.4298 15.8744 11.284 15.76 11.1765C15.6455 11.069 15.4903 11.0085 15.3285 11.0085H13.8161V7.33405H11.6936V11.0085H9.57097V7.33405H7.44839V11.0085H5.32582V7.33405H3.20324V11.0085H1.6909C1.52905 11.0085 1.37384 11.069 1.25939 11.1765C1.14495 11.284 1.08066 11.4298 1.08066 11.5819V12.0057H0.62961C0.467763 12.0057 0.312546 12.0661 0.198104 12.1736C0.0836612 12.2812 0.019368 12.427 0.019368 12.5791V14H17V12.5791C17 12.427 16.9357 12.2812 16.8213 12.1736C16.7068 12.0661 16.5516 12.0057 16.3898 12.0057Z" fill="white"/>
</svg>
