<svg width="16" height="14" viewBox="0 0 16 14" fill="none" xmlns="http://www.w3.org/2000/svg">
<path d="M12 2.8H4C3.64638 2.8 3.30724 2.9475 3.05719 3.21005C2.80714 3.4726 2.66667 3.8287 2.66667 4.2V9.8C2.66667 10.1713 2.80714 10.5274 3.05719 10.7899C3.30724 11.0525 3.64638 11.2 4 11.2H12C12.3536 11.2 12.6928 11.0525 12.9428 10.7899C13.1929 10.5274 13.3333 10.1713 13.3333 9.8V4.2C13.3333 3.8287 13.1929 3.4726 12.9428 3.21005C12.6928 2.9475 12.3536 2.8 12 2.8ZM12 7H4V4.9H12M1.33333 1.4H4V0H1.33333C0.979711 0 0.640573 0.1475 0.390524 0.41005C0.140476 0.672601 0 1.0287 0 1.4L0 4.2H1.33333V1.4ZM14.6667 0H12V1.4H14.6667V4.2H16V1.4C16 1.0287 15.8595 0.672601 15.6095 0.41005C15.3594 0.1475 15.0203 0 14.6667 0ZM1.33333 9.8H0V12.6C0 12.9713 0.140476 13.3274 0.390524 13.5899C0.640573 13.8525 0.979711 14 1.33333 14H4V12.6H1.33333V9.8ZM14.6667 12.6H12V14H14.6667C15.0203 14 15.3594 13.8525 15.6095 13.5899C15.8595 13.3274 16 12.9713 16 12.6V9.8H14.6667V12.6Z" fill="white" fill-opacity="0.6"/>
</svg>
