<svg width="14" height="10" viewBox="0 0 14 10" fill="none" xmlns="http://www.w3.org/2000/svg">
<path d="M14 3.75V8.125C14 8.62228 13.7788 9.09919 13.3849 9.45083C12.9911 9.80246 12.457 10 11.9 10H2.1C1.54305 10 1.0089 9.80246 0.615076 9.45083C0.221249 9.09919 0 8.62228 0 8.125V3.75H14ZM11.2 6.25H9.1C8.91435 6.25 8.7363 6.31585 8.60503 6.43306C8.47375 6.55027 8.4 6.70924 8.4 6.875C8.4 7.04076 8.47375 7.19973 8.60503 7.31694C8.7363 7.43415 8.91435 7.5 9.1 7.5H11.2C11.3857 7.5 11.5637 7.43415 11.695 7.31694C11.8263 7.19973 11.9 7.04076 11.9 6.875C11.9 6.70924 11.8263 6.55027 11.695 6.43306C11.5637 6.31585 11.3857 6.25 11.2 6.25ZM11.9 0C12.457 0 12.9911 0.197544 13.3849 0.549175C13.7788 0.900806 14 1.37772 14 1.875V2.5H0V1.875C0 1.37772 0.221249 0.900806 0.615076 0.549175C1.0089 0.197544 1.54305 0 2.1 0H11.9Z" fill="white" fill-opacity="0.85"/>
</svg>
