<svg width="14" height="14" viewBox="0 0 14 14" fill="none" xmlns="http://www.w3.org/2000/svg">
<path d="M9.1 5.89474C9.1 5.48947 9.415 5.15789 9.8 5.15789C10.185 5.15789 10.5 5.48947 10.5 5.89474C10.5 6.3 10.185 6.63158 9.8 6.63158C9.415 6.63158 9.1 6.3 9.1 5.89474ZM4.2 4.42105C4.2 4.828 4.5299 5.15789 4.93684 5.15789H6.96316C7.3701 5.15789 7.7 4.828 7.7 4.42105C7.7 4.01411 7.3701 3.68421 6.96316 3.68421H4.93684C4.52989 3.68421 4.2 4.01411 4.2 4.42105ZM13 4.05263C13.5523 4.05263 14 4.50035 14 5.05263V8.47953C14 8.90418 13.7318 9.28253 13.3311 9.42313L12.5144 9.70969C12.2081 9.81716 11.973 10.0666 11.8839 10.3787L11.0571 13.2745C10.9345 13.7039 10.5421 14 10.0956 14H7.73684C7.3299 14 7 13.6701 7 13.2632V13.2263C7 12.8397 6.6866 12.5263 6.3 12.5263C5.9134 12.5263 5.6 12.8397 5.6 13.2263V13.2632C5.6 13.6701 5.2701 14 4.86316 14H2.50793C2.05974 14 1.66722 13.7042 1.55122 13.2712C1.09271 11.5601 0 7.29635 0 5.52632C0 3.28632 1.722 1.47368 3.85 1.47368H6.83546C7.15837 1.47368 7.45477 1.31116 7.67742 1.07728C8.30935 0.413503 9.18244 0 10.15 0C10.323 3.87506e-05 10.4933 0.0451252 10.6457 0.131241C10.7981 0.217357 10.9279 0.341828 11.0236 0.49356C11.1192 0.645292 11.1777 0.819572 11.1938 1.00087C11.2099 1.18217 11.1832 1.36485 11.116 1.53263C11.0697 1.65093 11.0266 1.77744 10.9895 1.91062C10.9081 2.2028 11.0135 2.50794 11.2224 2.72783L12.1853 3.74138C12.3741 3.94011 12.6362 4.05263 12.9103 4.05263H13ZM12.6 6.01606C12.6 5.74558 12.3807 5.52632 12.1103 5.52632C11.976 5.52632 11.8476 5.47121 11.7552 5.37388L9.63426 3.14133C9.51596 3.0168 9.44818 2.84961 9.45663 2.67805C9.48195 2.16402 9.0085 1.7557 8.65583 2.13052C8.57959 2.21155 8.50926 2.29874 8.44561 2.39137C8.23489 2.69801 7.91806 2.94737 7.546 2.94737H3.85C2.499 2.94737 1.4 4.10421 1.4 5.52632C1.4 6.78849 2.10898 9.81853 2.64798 11.9355C2.73668 12.2839 3.05097 12.5263 3.41049 12.5263H3.46316C3.87011 12.5263 4.2 12.1964 4.2 11.7895C4.2 11.3825 4.5299 11.0526 4.93684 11.0526H7.66316C8.0701 11.0526 8.4 11.3825 8.4 11.7895C8.4 12.1964 8.7299 12.5263 9.13684 12.5263H9.19872C9.55476 12.5263 9.86782 12.2906 9.96628 11.9485L10.7497 9.22615C10.839 8.91578 11.0727 8.66765 11.3772 8.55995L11.9335 8.36314C12.333 8.22183 12.6 7.84411 12.6 7.42039V6.01606Z" fill="#95D9FF"/>
</svg>
