<svg width="32" height="32" viewBox="0 0 32 32" fill="none" xmlns="http://www.w3.org/2000/svg">
<circle cx="16" cy="16" r="16" fill="#272B30"/>
<path d="M14.5309 18.2105C14.8166 18.2106 15.0933 18.315 15.3123 18.5055L15.3914 18.5806L15.9999 19.2122L16.6085 18.5806C16.8105 18.3709 17.0772 18.2417 17.3618 18.2156L17.4689 18.2105H19.9177C20.3062 18.2105 20.6846 18.3391 20.9978 18.5776C21.3111 18.8162 21.5428 19.1522 21.6594 19.5368L21.6892 19.6455L21.9728 20.8227C22.0048 20.9556 22.0086 21.0941 21.9841 21.2287C21.9595 21.3633 21.9072 21.4907 21.8306 21.6023C21.754 21.7138 21.655 21.8068 21.5405 21.8748C21.4259 21.9428 21.2985 21.9842 21.167 21.9962L21.0873 22H10.9125C10.7806 22 10.6502 21.9702 10.5304 21.9129C10.4106 21.8555 10.3042 21.7719 10.2185 21.6677C10.1329 21.5635 10.07 21.4414 10.0342 21.3096C9.99843 21.1777 9.9906 21.0395 10.0113 20.9042L10.0271 20.8227L10.3107 19.6455C10.4049 19.2543 10.617 18.9045 10.916 18.647C11.215 18.3894 11.5854 18.2377 11.9732 18.2137L12.0821 18.2105H14.5309ZM15.9999 10C16.477 10 17.0107 10.12 17.4483 10.2469C18.4195 10.528 18.9952 11.4444 19.0396 12.4038L19.0426 12.5238V15.0545C19.0426 16.0575 18.4603 17.0396 17.4483 17.332C17.0107 17.4583 16.477 17.5789 15.9999 17.5789C15.5228 17.5789 14.9891 17.4589 14.5516 17.332C13.5804 17.0509 13.0047 16.1345 12.9603 15.1752L12.9572 15.0552V12.5238C12.9572 11.5215 13.5396 10.5387 14.5516 10.2463C14.9891 10.1206 15.5228 10 15.9999 10Z" fill="white"/>
</svg>
